<svg xmlns="http://www.w3.org/2000/svg" width="1468.143" height="806.075" viewBox="0 0 1468.143 806.075">
  <g id="Groupe_5" data-name="Groupe 5" transform="translate(-0.947)">
    <path id="Tracé_1" data-name="Tracé 1" d="M521.119,630.408v-50.66a28.6,28.6,0,0,0-28.6-28.6H456.372V792.094H578.3V687.589a28.6,28.6,0,0,0-28.6-28.6A28.577,28.577,0,0,1,521.119,630.408Z" fill="#b6d5d0"/>
    <path id="Tracé_2" data-name="Tracé 2" d="M831.839,731.837,808.77,754.366l-7.761-11.54L788.627,724.41l29.664-13.785,8.1,12.684Z" fill="#e9928b"/>
    <path id="Tracé_3" data-name="Tracé 3" d="M826.387,723.309a96.147,96.147,0,0,0-25.378,19.517L788.627,724.41l29.664-13.785Z" fill="#de6667"/>
    <path id="Tracé_4" data-name="Tracé 4" d="M899.9,55.95H410.181V311.3H899.9Z" fill="#edf6f5"/>
    <path id="Tracé_5" data-name="Tracé 5" d="M515.927,78.887H437.049v72.746h78.878Z" fill="#dceceb"/>
    <path id="Tracé_6" data-name="Tracé 6" d="M851.28,144.748h-2.958v-4.437h-4.436v-2.957h7.394Z" fill="#b6d5d0"/>
    <path id="Tracé_7" data-name="Tracé 7" d="M831.786,140.311h-12.1v-2.957h12.1Zm-24.191,0h-12.1v-2.957h12.1Zm-24.2,0h-12.1v-2.957h12.1Zm-24.192,0H747.1v-2.957h12.1Zm-24.2,0H722.9v-2.957H735Zm-24.191,0h-12.1v-2.957h12.1Zm-24.191,0h-12.1v-2.957h12.1Zm-24.2,0h-12.1v-2.957h12.1Zm-24.191,0h-12.1v-2.957h12.1Z" fill="#b6d5d0"/>
    <path id="Tracé_8" data-name="Tracé 8" d="M609.583,144.748h-2.958v-7.394h7.4v2.957h-4.437Z" fill="#b6d5d0"/>
    <path id="Tracé_9" data-name="Tracé 9" d="M609.583,265.576h-2.958V253.5h2.958Zm0-24.159h-2.958V229.326h2.958Zm0-24.17h-2.958V205.168h2.958Zm0-24.17h-2.958V181h2.958Zm0-24.159h-2.958V156.839h2.958Z" fill="#b6d5d0"/>
    <path id="Tracé_10" data-name="Tracé 10" d="M614.02,285.049h-7.4v-7.384h2.958v4.426h4.437Z" fill="#b6d5d0"/>
    <path id="Tracé_11" data-name="Tracé 11" d="M831.786,285.049h-12.1v-2.958h12.1Zm-24.191,0h-12.1v-2.958h12.1Zm-24.2,0h-12.1v-2.958h12.1Zm-24.192,0H747.1v-2.958h12.1Zm-24.2,0H722.9v-2.958H735Zm-24.191,0h-12.1v-2.958h12.1Zm-24.191,0h-12.1v-2.958h12.1Zm-24.2,0h-12.1v-2.958h12.1Zm-24.191,0h-12.1v-2.958h12.1Z" fill="#b6d5d0"/>
    <path id="Tracé_12" data-name="Tracé 12" d="M851.28,285.049h-7.394v-2.958h4.436v-4.426h2.958Z" fill="#b6d5d0"/>
    <path id="Tracé_13" data-name="Tracé 13" d="M851.28,265.576h-2.958V253.5h2.958Zm0-24.159h-2.958V229.326h2.958Zm0-24.17h-2.958V205.168h2.958Zm0-24.17h-2.958V181h2.958Zm0-24.159h-2.958V156.839h2.958Z" fill="#b6d5d0"/>
    <path id="Tracé_14" data-name="Tracé 14" d="M622.948,325.1H365.026a7.33,7.33,0,0,1-7.33-7.33V191.111a7.33,7.33,0,0,1,7.33-7.33H622.948a7.33,7.33,0,0,1,7.33,7.33V317.778A7.335,7.335,0,0,1,622.948,325.1Z" fill="#b2e5e0"/>
    <path id="Tracé_15" data-name="Tracé 15" d="M631.822,333.973H373.9a7.33,7.33,0,0,1-7.33-7.33V199.976a7.33,7.33,0,0,1,7.33-7.33H631.822a7.33,7.33,0,0,1,7.33,7.33V326.643A7.337,7.337,0,0,1,631.822,333.973Z" fill="#3fb8a9"/>
    <path id="Tracé_16" data-name="Tracé 16" d="M386.032,323.618H617.723s-7.719-54.06-19.885-70.49-22.345,6.239-35.817,33.194-41.409,39.11-61.779,12.155-29.578-35.494-52.258-21.028-40.427,2.3-47.983-16.43-13.969-18.405-13.969-18.405Z" fill="#fff" opacity="0.67"/>
    <path id="Tracé_17" data-name="Tracé 17" d="M386.032,323.619s10.676.5,19.226-11.335,10.849-29.9,20.046-35.493,17.747,0,30.56,23.414,32.86,12.4,41.409-10.925,12.49-34.511,26.621-35.817,23,16.106,27.937,32.86,17.747,22.345,30.56,15.447,35.332,21.86,35.332,21.86H386.032Z" fill="#fff" opacity="0.28"/>
    <path id="Tracé_18" data-name="Tracé 18" d="M390.469,213.037a4.437,4.437,0,1,1,4.437-4.437A4.437,4.437,0,0,1,390.469,213.037Z" fill="#fff"/>
    <path id="Tracé_19" data-name="Tracé 19" d="M498.925,205.968H405.917v5.257h93.008Z" fill="#fff"/>
    <path id="Tracé_20" data-name="Tracé 20" d="M390.469,229.056a4.437,4.437,0,1,1,4.437-4.437A4.436,4.436,0,0,1,390.469,229.056Z" fill="#fff"/>
    <path id="Tracé_21" data-name="Tracé 21" d="M477.562,221.985H405.917v5.257h71.645Z" fill="#fff"/>
    <path id="Tracé_22" data-name="Tracé 22" d="M525.167,86.349H446.289V159.1h78.878Z" transform="translate(3.504 -1.211)" fill="#fff"/>
    <path id="Tracé_25" data-name="Tracé 25" d="M763.152,133.015H604.5v-7.406H763.152Zm-157.659-.994H762.17v-5.44H605.493Z" fill="#fff"/>
    <path id="Tracé_26" data-name="Tracé 26" d="M763.152,102.441H604.5v-7.4H763.152Zm-157.659-.982H762.17v-5.44H605.493Z" fill="#fff"/>
    <path id="Tracé_27" data-name="Tracé 27" d="M763.153,71.884H604.5V64.479H763.153ZM605.494,70.9H762.17V65.461H605.494Z" fill="#fff"/>
    <path id="Tracé_32" data-name="Tracé 32" d="M909.271,729.894l-25.357,23.652L877.588,725.2l-2.45-10.967,30.3-7.665,1.749,10.677Z" fill="#e9928b"/>
    <path id="Tracé_33" data-name="Tracé 33" d="M907.188,717.241a42.184,42.184,0,0,0-12.533.788c-4.4,1.079-17.077,7.167-17.077,7.167l-2.451-10.978,30.3-7.664Z" fill="#de6667"/>
    <path id="Tracé_34" data-name="Tracé 34" d="M902.7,727.3c-12.835-.194-17.434,10.331-21.752,20.111s-9.542,32.59-17.023,34.9-11.507,6.326-11.507,10.935H879.4s16.937-18.621,25.648-25.886,10.828-11.982,10.828-11.982-3.347-17.995-6.607-25.465A9.31,9.31,0,0,0,902.7,727.3Z" fill="#0c1b3c"/>
    <path id="Tracé_35" data-name="Tracé 35" d="M904.823,746.066c-9.359,1.943-12.8,11.983-18.557,28.672s-17.163,18.5-17.163,18.5H900.98a96.869,96.869,0,0,1,5.57-13.893c2.807-5.754,7.643-12.317,8.863-18.319C918.284,746.93,907.1,745.591,904.823,746.066Z" fill="#408c91"/>
    <path id="Tracé_36" data-name="Tracé 36" d="M907.1,709.092a117.3,117.3,0,0,0-34.058,8.874s-6.812,2.213-16.668-18.524c-9.855-20.759-44.518-85.733-44.518-85.733l39.855,1.263,30.129.961S898.109,657.094,906,674.592,907.1,709.092,907.1,709.092Z" fill="#376f92"/>
    <path id="Tracé_37" data-name="Tracé 37" d="M873.053,681.069c-12.079,14.465-8.031,31.294,0,36.9,0,0-6.811,2.213-16.667-18.524-9.856-20.759-44.518-85.733-44.518-85.733l39.855,1.263,26.015,11.55s-25.627,3.282-31.38,16.765S885.122,666.615,873.053,681.069Z" fill="#1b5175"/>
    <path id="Tracé_38" data-name="Tracé 38" d="M1469.09,796.489s.12-72.693-79.48-37.339c0,0-17.5-62.578-63.33-59.621-45.85,2.958-50.29,62.179-50.29,62.179s-62.78-31.91-96.46,32.806Z" fill="#adccc7"/>
    <path id="Tracé_39" data-name="Tracé 39" d="M1335,793.908l-1.95-.27c5.3-37.858-15.09-65.007-15.3-65.277l1.57-1.2C1319.52,727.433,1340.41,755.241,1335,793.908Z" fill="#6eab9c"/>
    <path id="Tracé_40" data-name="Tracé 40" d="M1335.71,770.681l-1.6-1.166c.19-.259,18.81-25.864,21.98-41.959l1.94.377C1354.78,744.471,1336.49,769.623,1335.71,770.681Z" fill="#6eab9c"/>
    <path id="Tracé_41" data-name="Tracé 41" d="M1334.83,784.1c-14.54-.907-27.4-18.114-27.94-18.848l1.59-1.166c.13.173,12.85,17.2,26.47,18.049Z" fill="#6eab9c"/>
    <path id="Tracé_42" data-name="Tracé 42" d="M1381.46,793.652l2.65-1.9c.24-.183,25.45-18.038,52.43-19.3l.09,1.965c-21.12.982-41.19,12.414-48.49,17.023l26.18-.907.07,1.965Z" fill="#6eab9c"/>
    <path id="Tracé_43" data-name="Tracé 43" d="M1402.19,783.428l-1.87-.637c4.14-12.08,12.89-23.5,13.25-23.986l1.57,1.2C1415.05,760.122,1406.22,771.661,1402.19,783.428Z" fill="#6eab9c"/>
    <path id="Tracé_44" data-name="Tracé 44" d="M1275.54,793.3c-.19-.162-19.74-16.581-41.55-24.234l.65-1.857c22.16,7.772,41.97,24.418,42.18,24.58Z" fill="#6eab9c"/>
    <path id="Tracé_45" data-name="Tracé 45" d="M1224.71,787.554l-.9-1.76c.57-.291,14.35-7.189,39.68-3.659l-.27,1.954C1238.55,780.667,1224.84,787.489,1224.71,787.554Z" fill="#6eab9c"/>
    <g id="Groupe_1" data-name="Groupe 1" opacity="0.4">
      <path id="Tracé_46" data-name="Tracé 46" d="M764.792,636.855l-4.448-2.472a8.723,8.723,0,0,1-4.5-7.762c.011-.367.022-.723.022-1.09s-.011-.723-.022-1.09a8.724,8.724,0,0,1,4.5-7.762l4.448-2.472a8.787,8.787,0,0,0,4.221-9.931c-.022-.043-.022-.086-.043-.13a8.771,8.771,0,0,0-8.6-6.487l-5.1.086a8.844,8.844,0,0,1-7.837-4.566c-.324-.561-.648-1.123-.961-1.673a8.809,8.809,0,0,1-.054-9.09l2.612-4.339a8.767,8.767,0,0,0-1.317-10.709l-.108-.108a8.767,8.767,0,0,0-10.708-1.317l-4.34,2.613a8.833,8.833,0,0,1-9.089-.054c-.55-.324-1.112-.648-1.673-.961a8.8,8.8,0,0,1-4.566-7.837l.086-5.095a8.761,8.761,0,0,0-6.488-8.6c-.043-.021-.086-.021-.129-.043a8.788,8.788,0,0,0-9.932,4.221l-2.472,4.447a8.72,8.72,0,0,1-7.761,4.5c-.367-.011-.723-.022-1.09-.022s-.724.011-1.091.022a8.722,8.722,0,0,1-7.761-4.5l-2.472-4.447a8.787,8.787,0,0,0-9.931-4.221c-.044.022-.087.022-.13.043a8.773,8.773,0,0,0-6.488,8.6l.087,5.095a8.846,8.846,0,0,1-4.567,7.837c-.561.324-1.122.648-1.673.961a8.808,8.808,0,0,1-9.089.054l-4.34-2.613a8.782,8.782,0,0,0-10.708,1.317l-.108.108a8.767,8.767,0,0,0-1.317,10.709l2.612,4.339a8.832,8.832,0,0,1-.054,9.09c-.324.55-.647,1.112-.96,1.673a8.8,8.8,0,0,1-7.837,4.566l-5.1-.086a8.76,8.76,0,0,0-8.6,6.487c-.022.044-.022.087-.043.13a8.785,8.785,0,0,0,4.22,9.931l4.448,2.472a8.724,8.724,0,0,1,4.5,7.762c-.01.367-.021.723-.021,1.09s.011.723.021,1.09a8.723,8.723,0,0,1-4.5,7.762l-4.448,2.472a8.785,8.785,0,0,0-4.22,9.931c.021.043.021.087.043.13a8.769,8.769,0,0,0,8.6,6.487l5.1-.086a8.845,8.845,0,0,1,7.837,4.566c.323.562.647,1.123.96,1.674a8.808,8.808,0,0,1,.054,9.089l-2.612,4.339a8.782,8.782,0,0,0,1.317,10.709l.108.108a8.767,8.767,0,0,0,10.708,1.317l4.34-2.612a8.833,8.833,0,0,1,9.089.053c.551.324,1.112.648,1.673.961a8.8,8.8,0,0,1,4.567,7.837l-.087,5.1a8.763,8.763,0,0,0,6.488,8.6c.043.021.086.022.13.043a8.785,8.785,0,0,0,9.931-4.221l2.472-4.447a8.721,8.721,0,0,1,7.761-4.5c.367.011.724.022,1.091.022s.723-.011,1.09-.022a8.72,8.72,0,0,1,7.761,4.5l2.472,4.447A8.787,8.787,0,0,0,710.7,705.1c.043-.021.086-.022.129-.043a8.77,8.77,0,0,0,6.488-8.6l-.086-5.1a8.845,8.845,0,0,1,4.566-7.837c.561-.324,1.123-.648,1.673-.961a8.808,8.808,0,0,1,9.089-.053l4.34,2.612a8.781,8.781,0,0,0,10.708-1.317l.108-.108a8.767,8.767,0,0,0,1.317-10.709l-2.612-4.339a8.832,8.832,0,0,1,.054-9.089c.324-.551.648-1.112.961-1.674a8.8,8.8,0,0,1,7.837-4.566l5.1.086a8.762,8.762,0,0,0,8.6-6.487c.021-.043.021-.087.043-.13A8.781,8.781,0,0,0,764.792,636.855Zm-75.37,38.084a49.419,49.419,0,1,1,49.419-49.419A49.417,49.417,0,0,1,689.422,674.939Z" fill="#f4d7c9" opacity="0.4"/>
      <path id="Tracé_47" data-name="Tracé 47" d="M710.992,631.758a22.3,22.3,0,1,0-27.4,15.619A22.3,22.3,0,0,0,710.992,631.758Z" fill="#f4d7c9" opacity="0.4"/>
    </g>
    <g id="Groupe_2" data-name="Groupe 2" opacity="0.4">
      <path id="Tracé_48" data-name="Tracé 48" d="M1057.68,736.114l-2.59-1.447a5.142,5.142,0,0,1-2.64-4.533c0-.216.01-.421.01-.637s0-.421-.01-.637a5.105,5.105,0,0,1,2.64-4.534l2.59-1.447a5.131,5.131,0,0,0,2.46-5.8c-.01-.022-.01-.054-.02-.076a5.11,5.11,0,0,0-5.02-3.789l-2.98.043a5.181,5.181,0,0,1-4.58-2.666c-.18-.324-.38-.659-.56-.972a5.165,5.165,0,0,1-.03-5.311l1.52-2.536a5.114,5.114,0,0,0-.77-6.251l-.06-.064a5.109,5.109,0,0,0-6.25-.767l-2.54,1.522a5.154,5.154,0,0,1-5.31-.032c-.32-.184-.65-.378-.97-.562a5.154,5.154,0,0,1-2.67-4.577l.05-2.979a5.115,5.115,0,0,0-3.79-5.02c-.02-.01-.06-.01-.08-.021a5.112,5.112,0,0,0-5.79,2.461l-1.45,2.591a5.145,5.145,0,0,1-4.54,2.634c-.21,0-.42-.011-.63-.011s-.42,0-.64.011a5.076,5.076,0,0,1-4.53-2.634l-1.45-2.591a5.125,5.125,0,0,0-5.8-2.461c-.02.011-.05.011-.07.021a5.116,5.116,0,0,0-3.791,5.02l.044,2.979a5.175,5.175,0,0,1-2.667,4.577c-.324.184-.658.378-.971.562a5.156,5.156,0,0,1-5.311.032l-2.537-1.522a5.125,5.125,0,0,0-6.25.767l-.065.064a5.111,5.111,0,0,0-.767,6.251l1.523,2.536a5.156,5.156,0,0,1-.033,5.311c-.183.324-.378.648-.561.972a5.142,5.142,0,0,1-4.577,2.666l-2.98-.043a5.1,5.1,0,0,0-5.019,3.789c-.011.022-.011.054-.022.076a5.119,5.119,0,0,0,2.461,5.8l2.591,1.447a5.133,5.133,0,0,1,2.634,4.534c0,.216-.011.421-.011.637s0,.421.011.637a5.087,5.087,0,0,1-2.634,4.533l-2.591,1.447a5.127,5.127,0,0,0-2.461,5.8c.011.021.011.054.022.075a5.113,5.113,0,0,0,5.019,3.789l2.98-.043a5.177,5.177,0,0,1,4.577,2.667c.183.323.378.658.561.971a5.156,5.156,0,0,1,.033,5.311l-1.523,2.537a5.125,5.125,0,0,0,.767,6.25l.065.065a5.111,5.111,0,0,0,6.25.766l2.537-1.522a5.154,5.154,0,0,1,5.311.033c.324.183.647.377.971.561a5.141,5.141,0,0,1,2.667,4.577l-.044,2.979a5.1,5.1,0,0,0,3.791,5.02c.02.011.05.011.07.022a5.122,5.122,0,0,0,5.8-2.462l1.45-2.59a5.115,5.115,0,0,1,4.53-2.634c.22,0,.42.011.64.011s.42,0,.63-.011a5.1,5.1,0,0,1,4.54,2.634l1.45,2.59a5.12,5.12,0,0,0,5.79,2.462c.02-.011.06-.011.08-.022a5.126,5.126,0,0,0,3.79-5.02l-.05-2.979a5.186,5.186,0,0,1,2.67-4.577c.32-.184.66-.378.97-.561a5.152,5.152,0,0,1,5.31-.033l2.54,1.522a5.124,5.124,0,0,0,6.25-.766l.06-.065a5.1,5.1,0,0,0,.77-6.25l-1.52-2.537a5.165,5.165,0,0,1,.03-5.311c.18-.324.38-.648.56-.971a5.149,5.149,0,0,1,4.58-2.667l2.98.043a5.109,5.109,0,0,0,5.02-3.789c.01-.021.01-.054.02-.075A5.14,5.14,0,0,0,1057.68,736.114Zm-44,22.227a28.844,28.844,0,1,1,28.84-28.844A28.84,28.84,0,0,1,1013.68,758.341Z" fill="#f4d7c9" opacity="0.4"/>
    </g>
    <path id="Tracé_49" data-name="Tracé 49" d="M1065.58,109.783h130.67v45h-23.29l12.15,28.617-43.43-28.617h-76.1Z" fill="#eb908b"/>
    <path id="Tracé_50" data-name="Tracé 50" d="M1182.67,122.932H1081.08V127.9h101.59Z" fill="#fff"/>
    <path id="Tracé_51" data-name="Tracé 51" d="M1182.67,136.727H1081.08v4.965h101.59Z" fill="#fff"/>
    <path id="Tracé_52" data-name="Tracé 52" d="M1469.08,791.8H308.04v14.271H1469.08Z" fill="#aecbc7"/>
    <path id="Tracé_53" data-name="Tracé 53" d="M923.833,495.505v-15.49l-13.947-3.606L899.2,463.671l2.785-7.621-85.129-97.273h-355.6a6.316,6.316,0,0,0-6.315,6.315v11l.086.065a9.756,9.756,0,0,0,2.256,5.117l94.336,112.439A36.1,36.1,0,0,0,579.249,506.6H913.966a9.964,9.964,0,0,0,9.867-11.1Z" fill="#b6d5d0"/>
    <path id="Tracé_54" data-name="Tracé 54" d="M913.978,491.124H579.25a36.069,36.069,0,0,1-27.635-12.889L457.268,365.806a9.909,9.909,0,0,1,7.589-16.279H799.584a36.067,36.067,0,0,1,27.635,12.889l94.347,112.429A9.911,9.911,0,0,1,913.978,491.124Z" fill="#fff"/>
    <path id="Tracé_55" data-name="Tracé 55" d="M872.276,466.39a2.217,2.217,0,0,1-1.7-.788l-65.05-77.28a2.218,2.218,0,1,1,3.389-2.861l65.05,77.28A2.217,2.217,0,0,1,872.276,466.39Z" fill="#b2e5e0"/>
    <path id="Tracé_56" data-name="Tracé 56" d="M617.873,434.167H542.611a5.979,5.979,0,0,1-4.588-2.148l-36.907-44.281a2.294,2.294,0,0,1,1.759-3.767h75.262a5.979,5.979,0,0,1,4.588,2.148l36.908,44.28A2.3,2.3,0,0,1,617.873,434.167Z" fill="#dceceb"/>
    <path id="Tracé_57" data-name="Tracé 57" d="M581.332,467.145h-11.1a5.945,5.945,0,0,1-4.577-2.137l-13.645-16.289a2.292,2.292,0,0,1,1.76-3.768h11.1a5.944,5.944,0,0,1,4.577,2.138l13.645,16.289A2.293,2.293,0,0,1,581.332,467.145Z" fill="#b2e5e0"/>
    <path id="Tracé_58" data-name="Tracé 58" d="M613.416,467.145h-11.1a5.945,5.945,0,0,1-4.577-2.137L584.1,448.719a2.292,2.292,0,0,1,1.76-3.768h11.1a5.944,5.944,0,0,1,4.577,2.138l13.645,16.289A2.293,2.293,0,0,1,613.416,467.145Z" fill="#b2e5e0"/>
    <path id="Tracé_59" data-name="Tracé 59" d="M645.5,467.145H634.4a5.947,5.947,0,0,1-4.577-2.137L616.18,448.719a2.292,2.292,0,0,1,1.759-3.768h11.1a5.941,5.941,0,0,1,4.577,2.138l13.645,16.289A2.293,2.293,0,0,1,645.5,467.145Z" fill="#b2e5e0"/>
    <path id="Tracé_60" data-name="Tracé 60" d="M705.129,405.052H620.108a5.963,5.963,0,0,1-4.566-2.127l-12.727-15.166a2.3,2.3,0,0,1,1.759-3.779h85.021a5.966,5.966,0,0,1,4.566,2.127l12.727,15.167A2.3,2.3,0,0,1,705.129,405.052Z" fill="#dceceb"/>
    <path id="Tracé_61" data-name="Tracé 61" d="M731.155,436.069H646.134a5.966,5.966,0,0,1-4.566-2.127l-12.727-15.167A2.3,2.3,0,0,1,630.6,415h85.021a5.963,5.963,0,0,1,4.566,2.127l12.727,15.166A2.3,2.3,0,0,1,731.155,436.069Z" fill="#dceceb"/>
    <path id="Tracé_62" data-name="Tracé 62" d="M757.235,467.146h-85.02a5.965,5.965,0,0,1-4.567-2.127l-12.727-15.167a2.3,2.3,0,0,1,1.76-3.778H741.7a5.965,5.965,0,0,1,4.567,2.127l12.727,15.167A2.3,2.3,0,0,1,757.235,467.146Z" fill="#dceceb"/>
    <path id="Tracé_63" data-name="Tracé 63" d="M794.7,466.39a2.219,2.219,0,0,1-1.7-.788l-65.049-77.28a2.218,2.218,0,1,1,3.389-2.861l65.05,77.28A2.218,2.218,0,0,1,794.7,466.39Z" fill="#b2e5e0"/>
    <path id="Tracé_64" data-name="Tracé 64" d="M746.634,401.331h-9.261a6.889,6.889,0,0,1-4.448-2.418l-3.368-4.005c-1.123-1.338-.95-2.418.389-2.418h9.262a6.894,6.894,0,0,1,4.447,2.418l3.368,4.005C748.146,400.252,747.973,401.331,746.634,401.331Z" fill="#b2e5e0"/>
    <path id="Tracé_65" data-name="Tracé 65" d="M747.271,399.183h-9.262a6.894,6.894,0,0,1-4.448-2.418l-3.368-4.005c-1.122-1.339-.95-2.418.389-2.418h9.262a6.887,6.887,0,0,1,4.447,2.418l3.368,4.005C748.782,398.1,748.6,399.183,747.271,399.183Z" fill="#dceceb"/>
    <path id="Tracé_66" data-name="Tracé 66" d="M840.81,421.4h-9.262a6.889,6.889,0,0,1-4.447-2.419l-3.368-4c-1.123-1.339-.95-2.418.388-2.418h9.262a6.889,6.889,0,0,1,4.448,2.418l3.368,4C842.311,420.32,842.138,421.4,840.81,421.4Z" fill="#b2e5e0"/>
    <path id="Tracé_67" data-name="Tracé 67" d="M841.437,419.261h-9.262a6.891,6.891,0,0,1-4.447-2.418l-3.368-4c-1.123-1.339-.95-2.418.388-2.418h9.262a6.889,6.889,0,0,1,4.448,2.418l3.368,4C842.949,418.171,842.776,419.261,841.437,419.261Z" fill="#dceceb"/>
    <path id="Tracé_68" data-name="Tracé 68" d="M833.836,466.39a2.219,2.219,0,0,1-1.7-.788l-65.05-77.28a2.218,2.218,0,1,1,3.39-2.861l65.05,77.28A2.218,2.218,0,0,1,833.836,466.39Z" fill="#b2e5e0"/>
    <path id="Tracé_69" data-name="Tracé 69" d="M824.573,447.59h-9.262a6.894,6.894,0,0,1-4.447-2.418l-3.368-4.005c-1.123-1.338-.95-2.418.389-2.418h9.262a6.892,6.892,0,0,1,4.447,2.418l3.368,4.005C826.085,446.5,825.912,447.59,824.573,447.59Z" fill="#b2e5e0"/>
    <path id="Tracé_70" data-name="Tracé 70" d="M825.21,445.442h-9.262a6.889,6.889,0,0,1-4.447-2.419l-3.368-4c-1.123-1.339-.95-2.418.388-2.418h9.262a6.889,6.889,0,0,1,4.448,2.418l3.368,4C826.722,444.362,826.549,445.442,825.21,445.442Z" fill="#dceceb"/>
    <path id="Tracé_71" data-name="Tracé 71" d="M934.672,564.451s-5.365,16.624-24.494,31.219c-9.251,7.07-21.719,13.666-38.365,17.682-51.038,12.338-91.907,7.88-94.865,8.366-2.634.431,22.82,40.664,37.145,64.812,1.781,3,3.39,5.743,4.75,8.139.172.292.324.583.485.864,11.67,20.974,5.43,26.242,5.43,26.242-11.831,1.479-28.1,14.789-28.1,14.789-24.644,6.413-39.433-32.039-53.24-48.307s-49.3-64.575-33.518-90.7S865.93,537.906,865.93,537.906l13.979,5.4,26.372,10.179Z" fill="#376f92"/>
    <path id="Tracé_72" data-name="Tracé 72" d="M818.854,694.694c.172.292.323.583.485.864A3.156,3.156,0,0,1,818.854,694.694Z" fill="#1b5175"/>
    <path id="Tracé_73" data-name="Tracé 73" d="M919.882,582.158c-.076.184-3.768,5.408-9.705,13.526-9.251,7.071-21.719,13.666-38.365,17.682-51.038,12.339-91.907,7.88-94.865,8.366-2.634.432,22.82,40.665,37.145,64.813-8.593-10.342-22.173-11.7-32.331-32.385-12.327-25.1-41.409.95-46.72-19.755s15.178-19.225,45.242-32.535,35-7.891,62.264-13.321,22.994-38.883,22.994-38.883l14.357-6.337,19.981-2.58s2.839,5.635,6.391,12.76C912.228,565.448,920.141,581.532,919.882,582.158Z" fill="#1b5175"/>
    <path id="Tracé_74" data-name="Tracé 74" d="M831.828,731.828s14.2,11.853,14.52,20.856-29.881,39.509-29.881,39.509H778.156s-4.1-6.283,6.5-10.795,11.658-4.771,15.642-9.014,7.426-15.641,13.785-27.57A24.254,24.254,0,0,1,831.828,731.828Z" fill="#0c1b3c"/>
    <path id="Tracé_75" data-name="Tracé 75" d="M845.884,267.345s-8.971-5.516-11.961-11.724-10.579-19.776-11.033-22.993,5.981.227,9.662,6.672a157.256,157.256,0,0,0-7.125-15.869c-4.6-8.97-11.96-14.487-10.115-18.859S830.49,216.76,832.1,219.523s4.825-.226,8.97,1.836,4.134-.227,8.28,2.3,7.7,7.664,12.014,30.28Z" fill="#e9928b"/>
    <path id="Tracé_76" data-name="Tracé 76" d="M740.179,439.557s-4.858-1.674-13.072-9.575-13.073-10.785-15.8-12a25.832,25.832,0,0,0-11.7-2.278c-4.555.3-6.995-1.824-5.926-3.346s5.322-2.58,5.322-2.58-8.356.755-6.229-3.045,14.131-2.277,14.131-2.277,2.277-2.883,5.472-2.883,2.883-2.58,9.273-1.824,9.727,4.556,16.409,6.078,12.208,15.426,12.208,15.426Z" fill="#e9928b"/>
    <path id="Tracé_77" data-name="Tracé 77" d="M750.23,419.7s-10.741,9.489-14.022,19.517l-1.155,2.958,6.239,8.712,14.465-27.6Z" fill="#93405e"/>
    <path id="Tracé_78" data-name="Tracé 78" d="M844.74,275.928l-5.171-8.129s10.1-11.831,23.166-15.285l3.217,5.667Z" fill="#93405e"/>
    <path id="Tracé_79" data-name="Tracé 79" d="M999.591,380.887l-39.3,20.856-5.84,3.1s-2.083-1.047-5.494-2.828c-11.141-5.851-36.444-19.625-49.257-30.69-5.959-5.139-15.837-17.466-26.1-31.23-18.6-24.925-38.473-54.536-38.473-54.536,14.292-22.183,30.819-29.578,30.819-29.578s44.518,62.611,51.416,68.526c4.037,3.466,31.456,22.152,53.543,37.081C986.594,372.186,999.591,380.887,999.591,380.887Z" fill="#67a4c3"/>
    <path id="Tracé_80" data-name="Tracé 80" d="M999.592,380.886l-39.3,20.855c-3.487.076-7.341.173-11.324.27-11.14-5.851-36.443-19.625-49.257-30.69-5.959-5.138-15.836-17.466-26.1-31.229,8.161,4.253,16.214,7.988,20.9,12.025,10.19,8.82,7.232-1.975,52.592,4.264a151.681,151.681,0,0,1,23.825,5.182C986.595,372.185,999.592,380.886,999.592,380.886Z" fill="#4f91b3"/>
    <path id="Tracé_81" data-name="Tracé 81" d="M968.221,374.6s-34.014,20.867-34.09,7.729a35.846,35.846,0,0,0-1.868-11.313,29.5,29.5,0,0,0-5.127-9.564.136.136,0,0,0-.022.033c-12.144,12.943-17.563,8.841-19.042,6.379s-11.507-23.165-10.028-30.074,1.155-11.011-.983-15.286.983-14.616.983-14.616l28.93-6.088s26.782,27.278,29.081,36.476S968.221,374.6,968.221,374.6Z" fill="#e9928b"/>
    <path id="Tracé_82" data-name="Tracé 82" d="M1006.67,463.994c-8.871,26.621-57.135,115.516-82.395,118.053-10.3,1.036-23.587-5.689-35.7-14.022a253.324,253.324,0,0,1-32.74-27.581c22.183-15.728,19.225-65.32,19.225-65.32a.031.031,0,0,1-.011.021c-.485.4-31.7,26.329-52.635,28.769-21.1,2.461-89.328-44.864-89.328-44.864s15.285-38.451,22.68-36.972,56.2,33.032,64.553,33.518,55.724-41.906,67.512-53.737,58.205-30.074,90.741-30.56c0,0,21.2,3.454,28.6,19.225C1014.55,406.317,1015.55,437.374,1006.67,463.994Z" fill="#67a4c3"/>
    <path id="Tracé_83" data-name="Tracé 83" d="M912.163,278.626c-15.447,1.857-30.117,13.3-25.379,24.775s13.991,12.845,19.917,12.921,7.891,3.6,9.964,6.8,2.99,1.22,5.592-3.973,8.56-1.479,8.711,5.527-1.069,23.987,11.464,24.289,14.983-4.89,15.448-4.89,10.7-20.942,9.942-39.294c0,0,13-6.725,10.546-17.433s-16.516-12.846-24.925-4.21a24.474,24.474,0,0,1-13.612-4.048c-6.575-4.437-15.448-6.574-19.572-3.973S915.985,278.162,912.163,278.626Z" fill="#0c1b3c"/>
    <path id="Tracé_84" data-name="Tracé 84" d="M923.186,631.133h-13.2V781.138h13.2Z" fill="#f0d1aa"/>
    <path id="Tracé_85" data-name="Tracé 85" d="M923.186,781.138H916.58V631.133l6.606-.41Z" fill="#edbf84"/>
    <path id="Tracé_86" data-name="Tracé 86" d="M968.837,792.235H864.321a11.095,11.095,0,0,1,11.1-11.087H957.74A11.079,11.079,0,0,1,968.837,792.235Z" fill="#edbf84"/>
    <path id="Tracé_87" data-name="Tracé 87" d="M935.492,792.235h-71.16a11.095,11.095,0,0,1,11.1-11.087H916.59Z" fill="#f0d1aa"/>
    <path id="Tracé_88" data-name="Tracé 88" d="M1046.28,473.742c-.94.432-1.86.9-2.75,1.392-.29.162-.59.324-.87.486s-.57.324-.85.5-.56.334-.84.518c-.26.162-.52.324-.77.486-.3.194-.59.388-.87.593-.27.184-.54.367-.81.562s-.54.388-.8.583c-.89.658-1.76,1.349-2.61,2.061-.32.26-.62.519-.92.789-1.08.95-2.13,1.943-3.13,2.979l-.03.032q-.615.631-1.23,1.3c-.06.065-.12.14-.19.205q-.6.648-1.17,1.328c-.44.5-.85.993-1.26,1.5-.02.032-.05.065-.07.1-.39.475-.77.961-1.14,1.447-.39.507-.78,1.025-1.16,1.554a.535.535,0,0,1-.07.087c-.37.518-.74,1.036-1.1,1.565-.39.55-.75,1.1-1.12,1.662,0,0,0,.011-.01.011-.32.5-.64.993-.95,1.5-.09.141-.17.281-.26.421-.08.119-.16.249-.24.378-.58.95-1.14,1.911-1.69,2.893-.67,1.188-1.33,2.408-1.95,3.638-.32.616-.63,1.242-.93,1.868-.32.626-.62,1.252-.91,1.889-.59,1.274-1.18,2.558-1.74,3.864-.28.648-.56,1.307-.83,1.965s-.55,1.328-.81,1.986c-.24.572-.45,1.145-.68,1.728-.29.766-.58,1.532-.87,2.31-.26.68-.5,1.349-.75,2.04a2.31,2.31,0,0,1-.09.237c-.21.6-.43,1.209-.63,1.814q-.735,2.1-1.44,4.242c-.21.659-.43,1.328-.63,1.987-.22.7-.44,1.392-.66,2.094-.41,1.327-.81,2.644-1.2,3.972a2.135,2.135,0,0,1-.07.238c-.21.7-.41,1.414-.61,2.116a.04.04,0,0,0-.01.032c-.2.691-.4,1.392-.6,2.083-.26.9-.49,1.792-.74,2.688-.14.508-.28,1.026-.41,1.533-.08.281-.15.572-.24.853-.5,1.824-.97,3.649-1.45,5.462-.46,1.77-.91,3.53-1.366,5.268-.2.745-.389,1.479-.572,2.224-.594,2.321-1.188,4.62-1.771,6.876-.183.659-.345,1.328-.518,1.986-.313,1.2-.637,2.386-.95,3.552-.194.723-.388,1.457-.594,2.17-.712,2.58-1.425,5.084-2.169,7.513-.162.55-.335,1.1-.5,1.641-.119.388-.248.766-.367,1.155-.1.324-.2.658-.313.971-.345,1.058-.691,2.1-1.058,3.12-.378,1.1-.766,2.17-1.166,3.217a1.032,1.032,0,0,0-.054.162c-.183.475-.367.928-.55,1.392-.162.4-.324.8-.486,1.188-.043.1-.086.216-.13.313-.183.453-.388.9-.582,1.349a.519.519,0,0,1-.054.108c-.216.475-.432.95-.648,1.414s-.432.918-.659,1.36c-.162.335-.324.659-.5.983-.076.151-.151.3-.238.442-.216.389-.421.767-.637,1.145-.1.183-.205.356-.3.529-.129.226-.27.453-.41.68C966,632.222,913.3,631.131,913.3,631.131h-77.41c-18.168,0-18.535-18.535,2.18-19.992s61.056-25.443,79.224-78.133c8.808-25.541,19.063-40.751,27.3-49.646a37.024,37.024,0,0,1,27.2-11.777h74A1.132,1.132,0,0,1,1046.28,473.742Z" fill="#f4c8af"/>
    <path id="Tracé_89" data-name="Tracé 89" d="M1043.53,475.135c-.29.162-.59.324-.87.486s-.57.323-.85.5-.56.335-.84.518c-.26.162-.51.324-.77.486-.3.194-.59.389-.87.594-.28.183-.55.367-.81.561s-.54.389-.8.583c-.89.659-1.76,1.349-2.61,2.062-.32.259-.62.518-.92.788-1.08.95-2.13,1.943-3.13,2.979l-.03.033q-.615.631-1.23,1.295c-.06.065-.12.14-.19.205q-.6.648-1.17,1.328c-.44.5-.85.993-1.26,1.5-.02.033-.05.065-.07.1-.38.475-.77.961-1.14,1.447-.38.518-.78,1.036-1.16,1.555a.53.53,0,0,1-.07.086c-.36.518-.74,1.036-1.1,1.565-.38.551-.74,1.1-1.12,1.663a.01.01,0,0,1-.01.01c-.31.5-.64.993-.95,1.5-.09.14-.17.28-.26.421-.08.119-.15.248-.23.378h-.01c-.58.95-1.14,1.91-1.69,2.893-.67,1.187-1.33,2.407-1.95,3.638-.32.615-.63,1.23-.93,1.867s-.62,1.252-.91,1.889c-.59,1.274-1.18,2.559-1.74,3.865-.28.647-.56,1.306-.83,1.964s-.55,1.328-.81,1.987c-.24.572-.45,1.144-.68,1.727-.29.766-.58,1.533-.87,2.31-.25.68-.5,1.349-.75,2.04a2.321,2.321,0,0,1-.09.238c-.21.6-.43,1.209-.63,1.813q-.735,2.106-1.44,4.243c-.21.658-.42,1.327-.64,1.986-.21.7-.43,1.392-.65,2.094-.41,1.328-.81,2.656-1.2,3.973a2.185,2.185,0,0,1-.07.237c-.2.7-.41,1.414-.61,2.116a.041.041,0,0,0-.01.032c-.2.691-.39,1.382-.6,2.084-.26.9-.49,1.792-.74,2.688-.14.518-.28,1.025-.41,1.532-.08.281-.15.573-.24.853-.48,1.825-.97,3.649-1.45,5.462-.46,1.771-.91,3.53-1.366,5.268-.2.745-.378,1.49-.573,2.224-.593,2.321-1.187,4.62-1.77,6.876-.173.67-.345,1.328-.518,1.987-.313,1.2-.637,2.385-.95,3.551-.194.723-.389,1.457-.594,2.17-.712,2.58-1.425,5.084-2.169,7.513-.162.551-.335,1.1-.5,1.641-.119.389-.248.766-.367,1.155-.1.324-.2.659-.313.972-.345,1.058-.691,2.105-1.058,3.119-.378,1.1-.766,2.17-1.166,3.217a1.032,1.032,0,0,0-.054.162c-.183.475-.367.928-.55,1.393-.162.4-.324.8-.486,1.187-.043.1-.087.216-.13.313-.183.454-.388.9-.583,1.35a.45.45,0,0,1-.054.107c-.215.475-.431.95-.647,1.415s-.432.917-.659,1.36c-.162.334-.324.658-.5.982-.076.151-.151.3-.238.443-.216.388-.421.766-.637,1.144-.237.41-.475.81-.712,1.209C966,632.222,913.3,631.132,913.3,631.132H840.788c-5.17-4.038-2.655-10.2,11.1-11.173,20.716-1.457,65.471-30.7,83.65-83.4,8.809-25.541,19.064-40.751,27.3-49.646a37.006,37.006,0,0,1,27.2-11.777Z" fill="#f7dfd3"/>
    <path id="Tracé_90" data-name="Tracé 90" d="M1021.05,497.782c-.58.95-1.14,1.911-1.69,2.893-.67,1.188-1.33,2.408-1.94,3.638-.33.615-.64,1.231-.94,1.868s-.62,1.252-.91,1.889c-.59,1.274-1.18,2.558-1.74,3.864-.28.648-.56,1.307-.83,1.965s-.55,1.328-.81,1.986c-.24.572-.45,1.145-.68,1.728-.29.766-.58,1.532-.87,2.31-.25.68-.5,1.349-.75,2.04a2.291,2.291,0,0,1-.09.237c-.21.6-.43,1.209-.63,1.814q-.735,2.1-1.44,4.242c-.21.659-.42,1.328-.63,1.986-.22.7-.44,1.393-.66,2.095-.41,1.327-.81,2.655-1.2,3.972a2.138,2.138,0,0,1-.07.238c-.2.7-.41,1.414-.61,2.116a.04.04,0,0,0-.01.032c-.2.691-.39,1.382-.6,2.083-.26.9-.49,1.792-.74,2.688-.14.518-.28,1.026-.41,1.533-.08.281-.15.572-.24.853-.48,1.824-.97,3.649-1.45,5.462-.46,1.77-.91,3.53-1.366,5.268-.194.745-.378,1.49-.572,2.224-.594,2.321-1.187,4.62-1.77,6.876-.173.669-.346,1.328-.519,1.986-.313,1.2-.636,2.386-.949,3.552-.2.723-.389,1.457-.594,2.17-.713,2.58-1.425,5.084-2.17,7.513-.162.55-.335,1.1-.5,1.641-.118.388-.248.766-.367,1.155-.1.324-.205.658-.313.971-.345,1.058-.69,2.105-1.058,3.12-.377,1.1-.766,2.17-1.165,3.217a.853.853,0,0,0-.054.162c-.184.475-.367.928-.551,1.392-.162.4-.324.8-.486,1.188-.043.1-.086.216-.129.313-.184.453-.389.9-.583,1.349a.519.519,0,0,1-.054.108c-.216.475-.432.95-.648,1.414s-.432.918-.658,1.36c-.162.335-.324.659-.5.983-.075.151-.151.3-.237.442-.216.389-.421.767-.637,1.145-.1.183-.205.356-.3.529-.129.226-.269.453-.41.68-18.535,30.161-71.235,29.07-71.235,29.07H887.812c2.677-.162,52.172-2.537,69.821-76.525C969.572,504.648,1001.96,501.679,1021.05,497.782Z" fill="#f4c8af"/>
    <path id="Tracé_91" data-name="Tracé 91" d="M487.591,630.408v-50.66a28.6,28.6,0,0,0-28.6-28.6H422.843V792.094H544.771V687.589a28.6,28.6,0,0,0-28.595-28.6A28.577,28.577,0,0,1,487.591,630.408Z" fill="#dceceb"/>
    <path id="Tracé_92" data-name="Tracé 92" d="M479.883,730.912c-11.032-21.05-24.332-36.066-45.965-53.057s-49.958-17.067-61.52-22.54-11.863,9.694-8.269,23.943-7.319,79.861,58.4,100.716S488.033,746.446,479.883,730.912Z" fill="#f2d6c8"/>
    <path id="Tracé_93" data-name="Tracé 93" d="M438.376,745.065a.978.978,0,0,1-.971-.852c-3.152-23.231,8.366-46.181,8.485-46.407a.987.987,0,1,1,1.759.9c-.118.226-11.345,22.647-8.29,45.241a.986.986,0,0,1-.842,1.112A.717.717,0,0,1,438.376,745.065Z" fill="#f5b89b"/>
    <path id="Tracé_94" data-name="Tracé 94" d="M438.549,747.665a.96.96,0,0,1-.453-.108c-19.582-10.287-53.619-6.606-53.964-6.563a.988.988,0,0,1-.216-1.964c1.425-.162,34.986-3.79,55.1,6.779a.973.973,0,0,1,.41,1.328A1,1,0,0,1,438.549,747.665Z" fill="#f5b89b"/>
    <path id="Tracé_95" data-name="Tracé 95" d="M444.691,766.556a.991.991,0,0,1-.961-.756c-14.109-58.282-70.037-99.464-70.6-99.874a.989.989,0,1,1,1.166-1.6c.572.41,57.072,42.025,71.354,101.008a.981.981,0,0,1-.723,1.187A.888.888,0,0,1,444.691,766.556Z" fill="#f5b89b"/>
    <path id="Tracé_96" data-name="Tracé 96" d="M418.276,711.892a1.019,1.019,0,0,1-.615-.216c-12.77-10.223-43.633-7.556-43.935-7.524a.986.986,0,1,1-.173-1.965c1.3-.118,31.953-2.763,45.35,7.945a.992.992,0,0,1-.627,1.76Z" fill="#f5b89b"/>
    <path id="Tracé_97" data-name="Tracé 97" d="M408.032,698.905a.982.982,0,0,1-.907-.605c-4.005-9.521-1.889-25.616-1.8-26.3a.974.974,0,0,1,1.112-.842.986.986,0,0,1,.842,1.112c-.022.162-2.127,16.246,1.662,25.26a.986.986,0,0,1-.529,1.295A1.12,1.12,0,0,1,408.032,698.905Z" fill="#f5b89b"/>
    <path id="Tracé_98" data-name="Tracé 98" d="M1420.16,376.522a10.969,10.969,0,0,1-3.45,2.99c-10.66,5.862-29.8-6.9-38.54-6.488-9.8.475-14.47,13.3-37.57,4.2s-17.72-45.015-16.32-58.552-7-20.294-21.46-19.83-29.72-7.459-23.14-30.323-11.96-34.846-23.04-30.787-5.14-15.393-5.14-15.393a31.245,31.245,0,0,1,28.18-11.529,24.055,24.055,0,0,1,13.32,5.224s.01,0,.02.022a25.588,25.588,0,0,1,2.09,1.986c.01.022.03.033.04.054,5.41,5.862,7.53,14.055,10.95,20.327,5.6,10.266,14.93,9.564,29.4,5.138s43.61-2.385,49.91,21.785-10.49,52.4,19.6,59.4C1435.09,331.723,1429.49,364.388,1420.16,376.522Z" fill="#0c1b3c"/>
    <path id="Tracé_99" data-name="Tracé 99" d="M1252.63,220.408a19.4,19.4,0,0,1,7.73,17.423s.01,3.368-3.82,1.641-6.95-14.368-6.62-17.088S1251.67,220.085,1252.63,220.408Z" fill="#3fb8a9"/>
    <path id="Tracé_100" data-name="Tracé 100" d="M1248.95,272.481c-13.37,11.658-19.94,10.849-23.83,5.128-1.46-2.127-5.5-7.406-10-13.181-7.56-9.726-16.4-20.867-16.4-20.867s-14-.885-14.3-11.712a15.078,15.078,0,0,1,1.17-6.153c3.45-8.506,14.4-15.868,29.63-17.121,18.82-1.554,35.92,7.783,40.9,20.845C1261.07,242.471,1262.33,260.822,1248.95,272.481Z" fill="#0c1b3c"/>
    <g id="Groupe_3" data-name="Groupe 3" opacity="0.52">
      <path id="Tracé_101" data-name="Tracé 101" d="M1215.12,264.427c-7.56-9.727-16.4-20.867-16.4-20.867s-14-.885-14.3-11.712a15.075,15.075,0,0,1,1.17-6.153c2.78-4.351,8.01-8.1,17.8-6.866,20.99,2.645,11.25,37.717,16.43,41.409C1221.72,261.6,1219.15,263.088,1215.12,264.427Z" fill="#1b5175" opacity="0.52"/>
    </g>
    <path id="Tracé_102" data-name="Tracé 102" d="M1140.73,480.325s-7.42,2.181-11.07,4.933-12.52,7.028-12.7,8.464,7.45-.8,10.45-1.965,2.53,1.706-1.21,5.246a92.94,92.94,0,0,1-9.55,8.366c-4.31,3.282-4.81,4.75-3.15,5.344a3.793,3.793,0,0,0,3.18-.486s-3.86,2.936-2.33,4.577,6.26-1.846,6.26-1.846-1.34,2.364,1.92,2.289,4.38-1.544,8.23-2.678,15.47-13.385,18.17-17.649a46.954,46.954,0,0,0,4.06-7.956Z" fill="#ffac95"/>
    <path id="Tracé_103" data-name="Tracé 103" d="M1220.76,379.512s7.11,35.536-10.27,55.431-57.02,56.285-57.02,56.285L1138.89,479.8s35.7-47.238,40.6-65.374c1.05-3.864,2.02-11.291,2.02-11.291Z" fill="#f5911f"/>
    <path id="Tracé_104" data-name="Tracé 104" d="M1170.4,475.133a12.815,12.815,0,0,1,.54-7.7c1.64-3.6,9.44,7.168,9.44,7.168l2.05,8.96Z" fill="#ffac95"/>
    <path id="Tracé_105" data-name="Tracé 105" d="M1362.98,719.084c6.66,7.168,20.8,34.155,20.8,34.155l-10.47,7.61s-11.99-18.017-14.48-16.937-.04,27.484-3.37,29.9-25.48,18.5-25.48,18.5a36.4,36.4,0,0,1,3.37-17.9c3.82-7.6,7.75-23.273-2.24-46.9-1.29-3.066-2.81-6.261-4.61-9.586l23-21.428s2.84,6.391,6.62,12.846A56.22,56.22,0,0,0,1362.98,719.084Z" fill="#1b5175"/>
    <path id="Tracé_106" data-name="Tracé 106" d="M1326.5,717.94l23-21.427s2.84,6.39,6.62,12.845l-25.01,18.158Q1329.175,722.934,1326.5,717.94Z" fill="#e9928b"/>
    <path id="Tracé_107" data-name="Tracé 107" d="M1368.12,691.353,1317.11,726.2s-26.68-32.806-50.35-62.956c-15.78-20.132-30.22-39.067-34.45-46.3-8.54-14.573-20.74-72.175-25.11-93.775-1.04-5.139-1.64-8.247-1.64-8.247l6.25-17.542,12.13-34.058.9-2.526a96.686,96.686,0,0,1,18.5-6.93,51.208,51.208,0,0,1,7.85-1.371c7.95-.68,15.2,1.209,17.46,9.294.13.475.25.972.35,1.49.45,2.418.95,5.516,1.47,9.111,4.39,30.614,10.58,98.147,12.52,105.736C1285.18,586.61,1368.12,691.353,1368.12,691.353Z" fill="#5f6386"/>
    <path id="Tracé_108" data-name="Tracé 108" d="M1266.76,663.245c-15.78-20.133-30.22-39.067-34.45-46.3-8.54-14.573-20.74-72.175-25.11-93.775,1.21-4.836,2.14-8.032,2.6-8.723,2.62-3.94,60.68-42.035,60.68-42.035s2.42,34.058-9.09,55.788-21.36,37.674-12.16,61.088-10.51,36.908,5.26,50.045A34.192,34.192,0,0,1,1266.76,663.245Z" fill="#4a4e73"/>
    <path id="Tracé_109" data-name="Tracé 109" d="M1168.05,752.465c1.17,9.715-3.24,39.865-3.24,39.865h-12.95s.89-21.622-1.77-22.216c-2.64-.593-16.18,22.216-20.3,22.216H1098.3a36.371,36.371,0,0,1,13.25-12.5c7.55-3.908,19.94-14.282,25.75-39.261.76-3.239,1.41-6.725,1.91-10.46l31.19-3.822s-1.46,6.833-2.19,14.293A57.4,57.4,0,0,0,1168.05,752.465Z" fill="#1b5175"/>
    <path id="Tracé_110" data-name="Tracé 110" d="M1139.21,730.1l31.19-3.822s-1.46,6.834-2.19,14.293H1137.3C1138.06,737.32,1138.7,733.844,1139.21,730.1Z" fill="#e9928b"/>
    <path id="Tracé_111" data-name="Tracé 111" d="M1197.48,446.507s-44.78,105.131-57.85,148.667-32.96,137.472-32.96,137.472h68.43s26.74-127.519,38.57-148.051,55.98-95.179,49.13-121.928S1197.48,446.507,1197.48,446.507Z" fill="#5f6386"/>
    <path id="Tracé_112" data-name="Tracé 112" d="M1270.49,472.412l-20.76,53.877-67.28-42.726,41.5-20.219,19.4-9.456,5.43-2.656,2.42,1.285,17.46,9.294c.13.475.25.972.35,1.49C1269.47,465.708,1269.96,468.806,1270.49,472.412Z" fill="#4a4e73"/>
    <path id="Tracé_113" data-name="Tracé 113" d="M1235.43,304.716s-16.17,6.8-29.86,25.465-29.86,53.359-31.1,59.955,10.66,59.015,10.62,72.541,63.65,8.528,81.69-.183c0,0-7.09-49.581-7.09-56.425s.63-52.873-3.11-74.02S1235.43,304.716,1235.43,304.716Z" fill="#ffab40"/>
    <path id="Tracé_114" data-name="Tracé 114" d="M1231.56,353.486s-2.56,17.024,0,29.837-17.43,5.02-24.36,31.1,52.4,13.429,52.4,13.429,16.35-25.141,16.47-29.416S1231.56,353.486,1231.56,353.486Z" fill="#f5911f"/>
    <path id="Tracé_115" data-name="Tracé 115" d="M1235.43,304.716s-31.26,32.147-28.51,23.684c1.51-4.663-1.12-15.814-3.8-24.893-2.19-7.416-4.4-13.45-4.4-13.45s6.01-6.11,12.3-11.324c6.66-5.527,13.64-10.039,14.1-5.16C1226,283.062,1235.43,304.716,1235.43,304.716Z" fill="#ffac95"/>
    <path id="Tracé_116" data-name="Tracé 116" d="M1154.51,369.406l-35.22,75.851,130.89,60.767,35.21-75.851Z" fill="#3fb8a9"/>
    <path id="Tracé_117" data-name="Tracé 117" d="M1158.74,380.976l-27.88,60.047,115.08,53.431,27.88-60.048Z" fill="#fff"/>
    <path id="Tracé_118" data-name="Tracé 118" d="M1142.66,447.6l47.2-33.172,5.12,57.461Z" fill="#3fb8a9"/>
    <path id="Tracé_119" data-name="Tracé 119" d="M1192.55,470.871l36.51-25.659,3.96,44.453Z" fill="#3fb8a9"/>
    <path id="Tracé_120" data-name="Tracé 120" d="M1220.95,428.237a8.583,8.583,0,1,0-11.54,3.771A8.582,8.582,0,0,0,1220.95,428.237Z" fill="#3fb8a9"/>
    <path id="Tracé_121" data-name="Tracé 121" d="M1194.74,458.562s-6.09.864-10.38,1.965c-4.31,1.1-12.78.5-13.77,2.461s9.52,3.692,12.08,3.93-3.96,3.843-7.65,4.868-6.64,2.5-2.83,5.948,9.72,8.6,12.17,8.971,14.5-8.733,21.14-15.491S1194.74,458.562,1194.74,458.562Z" fill="#ffac95"/>
    <path id="Tracé_122" data-name="Tracé 122" d="M1236.04,316.178c-11.73,8.982-7.16,32.04-1.24,46.969s22.7,42.3,21.46,44.788-63.49,49.721-63.49,49.721l12.79,16.063s59.09-29.708,73.72-40.276c14.61-10.579,15.85-22.086,11.5-37.015S1261.24,296.9,1236.04,316.178Z" fill="#ffab40"/>
    <path id="Tracé_123" data-name="Tracé 123" d="M1150.78,732.9l-2.91-.507c.94-5.376,23.07-131.676,26.95-143.561,3.88-11.821,34.32-88.723,35.61-91.983l2.75,1.09c-.31.8-31.71,80.076-35.55,91.821C1173.82,601.433,1151.02,731.587,1150.78,732.9Z" fill="#4a4e73"/>
    <path id="Tracé_124" data-name="Tracé 124" d="M1345.64,706.845c-.46-.582-46.57-58.389-70.73-88.28-24.37-30.161-33.39-72.509-33.48-72.93l2.89-.6c.09.421,8.97,42.079,32.89,71.667,24.16,29.891,70.28,87.709,70.74,88.292Z" fill="#4a4e73"/>
    <g id="Groupe_4" data-name="Groupe 4" opacity="0.52">
      <path id="Tracé_125" data-name="Tracé 125" d="M1420.16,376.521a10.956,10.956,0,0,1-3.45,2.99c10.37-12.349,2.76-28.714-23.86-28.379s-33.84-22.68-18.07-60.8-23.99-41.085-40.75-32.536-33.86.659-33.2-17.833c.45-12.371-3.21-18.891-5.69-21.86,5.41,5.862,7.53,14.055,10.95,20.327,5.6,10.266,14.93,9.564,29.39,5.139s43.62-2.386,49.92,21.784-10.49,52.4,19.6,59.4C1435.09,331.723,1429.49,364.388,1420.16,376.521Z" fill="#1b5175" opacity="0.52"/>
    </g>
    <path id="Tracé_126" data-name="Tracé 126" d="M1219.87,277.307s-4.68,17.164-16.75,26.2c-2.19-7.416-4.4-13.451-4.4-13.451s6.01-6.109,12.3-11.323Z" fill="#e9928b"/>
    <path id="Tracé_127" data-name="Tracé 127" d="M1199.65,232.834s-8.4,20.834-16.33,24.882-2.64,4.976,0,9.488-7.47,18.5,1.24,24.883,28.93-4.049,35.3-14.779c0,0,11.04.465,13.69-7.934s-5.91-13.688-10.88-9.953-5.6-4.048-7.77-15.706C1212.71,232.056,1200.72,230.351,1199.65,232.834Z" fill="#ffac95"/>
    <path id="Tracé_128" data-name="Tracé 128" d="M308.04,791.8c-1.878-19.69,15.955-49.333,73.2-30.053,0,0,14.465-45.188,54.233-43.687s52.42,38.7,52.42,38.7,53.424-6.455,61.056,38.733C548.949,795.5,310.749,820.249,308.04,791.8Z" fill="#adccc7"/>
    <path id="Tracé_129" data-name="Tracé 129" d="M426.774,795.2l-1.944-.313c5.16-32.007-14.681-54.978-14.886-55.205l1.479-1.306C411.628,738.619,432.074,762.282,426.774,795.2Z" fill="#6eab9c"/>
    <path id="Tracé_130" data-name="Tracé 130" d="M427.431,775.592l-1.511-1.274c.183-.216,18.319-21.9,21.406-35.515l1.922.432C446.052,753.322,428.187,774.7,427.431,775.592Z" fill="#6eab9c"/>
    <path id="Tracé_131" data-name="Tracé 131" d="M426.589,786.981c-14.162-.767-26.717-15.372-27.235-16l1.5-1.274c.119.151,12.533,14.584,25.843,15.307Z" fill="#6eab9c"/>
    <path id="Tracé_132" data-name="Tracé 132" d="M471.28,796.244l-1.285-1.49c1.026-.885,25.228-21.676,37.815-22.032l.054,1.975C495.968,775.021,471.517,796.028,471.28,796.244Z" fill="#6eab9c"/>
    <path id="Tracé_133" data-name="Tracé 133" d="M518.616,792.173c-.194-.011-19.485-1.187-35.094-5.213l.5-1.911c15.425,3.983,34.532,5.138,34.716,5.16Z" fill="#6eab9c"/>
    <path id="Tracé_134" data-name="Tracé 134" d="M374.85,795.057c-12.749-10.6-39.628-19.064-39.9-19.15l.583-1.879c1.122.346,27.527,8.669,40.578,19.517Z" fill="#6eab9c"/>
    <path id="Tracé_135" data-name="Tracé 135" d="M364.93,786.863l-1.976-.054a41.256,41.256,0,0,0-4.415-19.291l1.716-.971A42.168,42.168,0,0,1,364.93,786.863Z" fill="#6eab9c"/>
    <path id="Tracé_136" data-name="Tracé 136" d="M941.072,150.264l-347.045,5.915-6.9-5.915V36.227H941.072l6.9,5.916Z" fill="#b6d5d0"/>
    <path id="Tracé_137" data-name="Tracé 137" d="M941.073,25.627,594.028,31.543l-6.9-5.916V0H941.073l6.9,5.916Z" fill="#b6d5d0"/>
    <path id="Tracé_138" data-name="Tracé 138" d="M947.971,42.143H594.028V156.18H947.971Z" fill="#dceceb"/>
    <path id="Tracé_139" data-name="Tracé 139" d="M947.971,5.916H594.028V31.554H947.971Z" fill="#edf6f5"/>
    <path id="Tracé_140" data-name="Tracé 140" d="M661.776,23.521a4.793,4.793,0,1,0-4.793-4.793A4.793,4.793,0,0,0,661.776,23.521Z" fill="#67a4c3"/>
    <path id="Tracé_141" data-name="Tracé 141" d="M644.008,18.729a4.793,4.793,0,1,1-4.793-4.793A4.8,4.8,0,0,1,644.008,18.729Z" fill="#eb908b"/>
    <path id="Tracé_142" data-name="Tracé 142" d="M616.654,23.521a4.793,4.793,0,1,0-4.793-4.793A4.793,4.793,0,0,0,616.654,23.521Z" fill="#ffaa3f"/>
    <path id="Tracé_143" data-name="Tracé 143" d="M876.818,47.7a45.565,45.565,0,1,0,45.565,45.565A45.561,45.561,0,0,0,876.818,47.7Zm0,74.895a29.33,29.33,0,1,1,29.329-29.33A29.33,29.33,0,0,1,876.818,122.6Z" fill="#b2e5e0"/>
    <path id="Tracé_144" data-name="Tracé 144" d="M919.857,64.972a45.562,45.562,0,0,0-77.766,32.234,46.134,46.134,0,0,0,.8,8.517,45.567,45.567,0,1,0,76.967-40.751Zm-17.5,57.613a29.336,29.336,0,1,1,14.627-25.379A29.168,29.168,0,0,1,902.359,122.585Z" fill="#3fb8a9"/>
    <path id="Tracé_145" data-name="Tracé 145" d="M933.233,97.205a45.558,45.558,0,0,1-22.724,39.445l-8.139-14.066a29.337,29.337,0,0,0,6.024-46.137l11.475-11.475A45.377,45.377,0,0,1,933.233,97.205Z" fill="#fff"/>
    <path id="Tracé_146" data-name="Tracé 146" d="M910.509,136.649A45.6,45.6,0,0,1,842.9,105.722l15.955-3.055a29.336,29.336,0,0,0,43.525,19.916Z" fill="#ffc945"/>
    <path id="Tracé_147" data-name="Tracé 147" d="M771.5,64.479H612.843v7.405H771.5Z" fill="#fff"/>
    <path id="Tracé_148" data-name="Tracé 148" d="M771.5,95.036H612.843v7.4H771.5Z" fill="#fff"/>
    <path id="Tracé_149" data-name="Tracé 149" d="M771.5,125.609H612.843v7.406H771.5Z" fill="#fff"/>
    <path id="Tracé_150" data-name="Tracé 150" d="M1234.06,300.659a79.776,79.776,0,0,1-27.42,18.751l-2.23,12.382s15.62-4.783,31.02-27.063Z" fill="#f5911f"/>
    <path id="Tracé_151" data-name="Tracé 151" d="M825.211,792.192H806.482s15.1-7.568,20.046-23.08c3.562-11.183,9.392-21.913,16.635-19.258s1.274,14.973-2.569,21.914C835.1,781.667,825.211,792.192,825.211,792.192Z" fill="#408c91"/>
    <path id="Tracé_152" data-name="Tracé 152" d="M461.521,551.154h-2.958V431.406a18.479,18.479,0,0,1,18.46-18.459h12.209V415.9H477.023a15.517,15.517,0,0,0-15.5,15.5Z" fill="#3fb8a9"/>
    <path id="Tracé_153" data-name="Tracé 153" d="M473.46,552.4H470.5V432.649a8.613,8.613,0,0,1,8.6-8.6h21.471V427H479.106a5.65,5.65,0,0,0-5.646,5.645Z" fill="#3fb8a9"/>
    <path id="Tracé_154" data-name="Tracé 154" d="M887.832,564.454a12.2,12.2,0,0,1,.745,3.573,253.288,253.288,0,0,1-32.741-27.581c22.183-15.728,19.226-65.32,19.226-65.32s25.033-21.859,28.487-16.57-8.873,35.6,0,48.048S880.513,544.3,887.832,564.454Z" fill="#4f91b3"/>
    <path id="Tracé_155" data-name="Tracé 155" d="M932.264,371.019a29.5,29.5,0,0,0-5.127-9.564,26.264,26.264,0,0,0,5.138-12.479S938.255,362.782,932.264,371.019Z" fill="#de6667"/>
    <path id="Tracé_156" data-name="Tracé 156" d="M683.636,215.256a24.979,24.979,0,1,0-35.236-2.518A24.979,24.979,0,0,0,683.636,215.256Z" fill="#fff"/>
    <path id="Tracé_157" data-name="Tracé 157" d="M827.791,172.016H716.853v7.167H827.791Z" fill="#fff"/>
    <path id="Tracé_158" data-name="Tracé 158" d="M827.791,193.2H716.852v7.168H827.791Z" fill="#fff"/>
    <path id="Tracé_159" data-name="Tracé 159" d="M778.243,214.181H716.852v7.167h61.391Z" fill="#fff"/>
    <path id="Tracé_169" data-name="Tracé 169" d="M473.061,619.753a4.7,4.7,0,1,1-4.7-4.7A4.7,4.7,0,0,1,473.061,619.753Z" fill="#b6d5d0"/>
    <path id="Tracé_170" data-name="Tracé 170" d="M468.376,602.365a4.7,4.7,0,1,0-4.7-4.7A4.7,4.7,0,0,0,468.376,602.365Z" fill="#b6d5d0"/>
    <path id="Tracé_171" data-name="Tracé 171" d="M468.376,580.279a4.7,4.7,0,1,0-4.7-4.7A4.7,4.7,0,0,0,468.376,580.279Z" fill="#b6d5d0"/>
    <path id="Tracé_172" data-name="Tracé 172" d="M201.991,689.49H.947s13.828-30.852,45.738-18.081c0,0,11.7-31.91,39.358-28.186s32.978,22.982,32.978,22.982,29.783-11.82,58.508,12.123C177.529,678.328,200.933,675.662,201.991,689.49Z" fill="#edf6f5"/>
    <path id="Tracé_173" data-name="Tracé 173" d="M932.274,380.033a10.965,10.965,0,0,1,4.318-6.6c3.638-2.515,26.966-12.76,33.291-1.609Z" fill="#93405e"/>
  </g>
</svg>
